<?xml version="1.0" encoding="UTF-8"?>
<svg width="860px" height="714px" viewBox="0 0 860 714" version="1.1" xmlns="http://www.w3.org/2000/svg" xmlns:xlink="http://www.w3.org/1999/xlink">
    <!-- Generator: Sketch 52.5 (67469) - http://www.bohemiancoding.com/sketch -->
    <title>texture</title>
    <desc>Created with Sketch.</desc>
    <g id="screens" stroke="none" stroke-width="1" fill="none" fill-rule="evenodd" opacity="0.1">
        <g id="models" transform="translate(-290.000000, -93.000000)" fill="#616161">
            <g id="texture" transform="translate(290.000000, 93.000000)">
                <path d="M462.06782,348.327286 L446.932336,339.672839 L430.036637,349.394674 L412.986011,339.583693 L398.156693,348.151404 L398.233828,365.397796 L415.095137,375.179237 L415.129842,394.861351 L429.823852,403.350886 L445.017509,394.481709 L445.051899,374.978433 L462.06782,365.1073 L462.06782,348.327286 Z M465.98694,345.761432 L500.56782,365.71555 L500.56782,407.144562 L464.56782,427.859067 L430.049653,407.851417 L395.353452,427.922569 L359.5,407.208063 L359.573274,365.652048 L394.284062,345.662589 L394.262401,305.914226 L430.115853,285.19972 L466.042579,306.041229 L465.98694,345.761432 Z M450.036637,336.837702 L461.989862,343.672538 L462.039347,308.345667 L430.111776,289.824114 L398.263661,308.224517 L398.282861,343.456471 L410.036637,336.665669 L410.036637,314.870498 L430.036637,303.362439 L450.036637,314.870498 L450.036637,336.837702 Z M414.036637,317.186228 L414.036637,335.570885 L430.036637,344.777332 L446.036637,335.570885 L446.036637,317.186228 L430.036637,307.979781 L414.036637,317.186228 Z M394.228096,364.125077 L394.16648,350.348609 L363.569195,367.969159 L363.504077,404.899399 L395.352192,423.299803 L425.832992,405.667187 L414.079216,398.876385 L395.217261,409.773971 L375.257969,398.195355 L375.217261,375.108679 L394.228096,364.125077 Z M395.221338,405.149577 L411.131768,395.957248 L411.099202,377.487908 L395.131768,368.225015 L379.221338,377.417343 L379.253904,395.886684 L395.221338,405.149577 Z M445.91894,398.589565 L434.027331,405.531198 L464.575132,423.237518 L496.56782,404.828831 L496.56782,368.028025 L466.06782,350.428687 L466.06782,364.01029 L484.929775,374.907876 L484.889067,397.994551 L464.929775,409.573168 L445.91894,398.589565 Z M480.925698,377.21654 L465.015268,368.024211 L449.047834,377.287105 L449.015268,395.756445 L464.925698,404.948773 L480.893132,395.68588 L480.925698,377.21654 Z" id="Combined-Shape"></path>
                <path d="M701.56782,348.327286 L686.432336,339.672839 L669.536637,349.394674 L652.486011,339.583693 L637.656693,348.151404 L637.733828,365.397796 L654.595137,375.179237 L654.629842,394.861351 L669.323852,403.350886 L684.517509,394.481709 L684.551899,374.978433 L701.56782,365.1073 L701.56782,348.327286 Z M705.48694,345.761432 L740.06782,365.71555 L740.06782,407.144562 L704.06782,427.859067 L669.549653,407.851417 L634.853452,427.922569 L599,407.208063 L599.073274,365.652048 L633.784062,345.662589 L633.762401,305.914226 L669.615853,285.19972 L705.542579,306.041229 L705.48694,345.761432 Z M689.536637,336.837702 L701.489862,343.672538 L701.539347,308.345667 L669.611776,289.824114 L637.763661,308.224517 L637.782861,343.456471 L649.536637,336.665669 L649.536637,314.870498 L669.536637,303.362439 L689.536637,314.870498 L689.536637,336.837702 Z M653.536637,317.186228 L653.536637,335.570885 L669.536637,344.777332 L685.536637,335.570885 L685.536637,317.186228 L669.536637,307.979781 L653.536637,317.186228 Z M633.728096,364.125077 L633.66648,350.348609 L603.069195,367.969159 L603.004077,404.899399 L634.852192,423.299803 L665.332992,405.667187 L653.579216,398.876385 L634.717261,409.773971 L614.757969,398.195355 L614.717261,375.108679 L633.728096,364.125077 Z M634.721338,405.149577 L650.631768,395.957248 L650.599202,377.487908 L634.631768,368.225015 L618.721338,377.417343 L618.753904,395.886684 L634.721338,405.149577 Z M685.41894,398.589565 L673.527331,405.531198 L704.075132,423.237518 L736.06782,404.828831 L736.06782,368.028025 L705.56782,350.428687 L705.56782,364.01029 L724.429775,374.907876 L724.389067,397.994551 L704.429775,409.573168 L685.41894,398.589565 Z M720.425698,377.21654 L704.515268,368.024211 L688.547834,377.287105 L688.515268,395.756445 L704.425698,404.948773 L720.393132,395.68588 L720.425698,377.21654 Z" id="Combined-Shape-Copy-18"></path>
                <path d="M222.56782,348.327286 L207.432336,339.672839 L190.536637,349.394674 L173.486011,339.583693 L158.656693,348.151404 L158.733828,365.397796 L175.595137,375.179237 L175.629842,394.861351 L190.323852,403.350886 L205.517509,394.481709 L205.551899,374.978433 L222.56782,365.1073 L222.56782,348.327286 Z M226.48694,345.761432 L261.06782,365.71555 L261.06782,407.144562 L225.06782,427.859067 L190.549653,407.851417 L155.853452,427.922569 L120,407.208063 L120.073274,365.652048 L154.784062,345.662589 L154.762401,305.914226 L190.615853,285.19972 L226.542579,306.041229 L226.48694,345.761432 Z M210.536637,336.837702 L222.489862,343.672538 L222.539347,308.345667 L190.611776,289.824114 L158.763661,308.224517 L158.782861,343.456471 L170.536637,336.665669 L170.536637,314.870498 L190.536637,303.362439 L210.536637,314.870498 L210.536637,336.837702 Z M174.536637,317.186228 L174.536637,335.570885 L190.536637,344.777332 L206.536637,335.570885 L206.536637,317.186228 L190.536637,307.979781 L174.536637,317.186228 Z M154.728096,364.125077 L154.66648,350.348609 L124.069195,367.969159 L124.004077,404.899399 L155.852192,423.299803 L186.332992,405.667187 L174.579216,398.876385 L155.717261,409.773971 L135.757969,398.195355 L135.717261,375.108679 L154.728096,364.125077 Z M155.721338,405.149577 L171.631768,395.957248 L171.599202,377.487908 L155.631768,368.225015 L139.721338,377.417343 L139.753904,395.886684 L155.721338,405.149577 Z M206.41894,398.589565 L194.527331,405.531198 L225.075132,423.237518 L257.06782,404.828831 L257.06782,368.028025 L226.56782,350.428687 L226.56782,364.01029 L245.429775,374.907876 L245.389067,397.994551 L225.429775,409.573168 L206.41894,398.589565 Z M241.425698,377.21654 L225.515268,368.024211 L209.547834,377.287105 L209.515268,395.756445 L225.425698,404.948773 L241.393132,395.68588 L241.425698,377.21654 Z" id="Combined-Shape-Copy-9"></path>
                <path d="M462.06782,206.227777 L446.932336,197.57333 L430.036637,207.295165 L412.986011,197.484184 L398.156693,206.051895 L398.233828,223.298287 L415.095137,233.079727 L415.129842,252.761841 L429.823852,261.251377 L445.017509,252.382199 L445.051899,232.878924 L462.06782,223.007791 L462.06782,206.227777 Z M465.98694,203.661923 L500.56782,223.61604 L500.56782,265.045052 L464.56782,285.759558 L430.049653,265.751907 L395.353452,285.82306 L359.5,265.108554 L359.573274,223.552538 L394.284062,203.563079 L394.262401,163.814716 L430.115853,143.10021 L466.042579,163.94172 L465.98694,203.661923 Z M450.036637,194.738192 L461.989862,201.573028 L462.039347,166.246158 L430.111776,147.724605 L398.263661,166.125008 L398.282861,201.356961 L410.036637,194.56616 L410.036637,172.770988 L430.036637,161.262929 L450.036637,172.770988 L450.036637,194.738192 Z M414.036637,175.086719 L414.036637,193.471375 L430.036637,202.677822 L446.036637,193.471375 L446.036637,175.086719 L430.036637,165.880271 L414.036637,175.086719 Z M394.228096,222.025568 L394.16648,208.249099 L363.569195,225.869649 L363.504077,262.79989 L395.352192,281.200293 L425.832992,263.567677 L414.079216,256.776876 L395.217261,267.674462 L375.257969,256.095845 L375.217261,233.00917 L394.228096,222.025568 Z M395.221338,263.050067 L411.131768,253.857739 L411.099202,235.388399 L395.131768,226.125505 L379.221338,235.317834 L379.253904,253.787174 L395.221338,263.050067 Z M445.91894,256.490056 L434.027331,263.431689 L464.575132,281.138009 L496.56782,262.729322 L496.56782,225.928515 L466.06782,208.329178 L466.06782,221.910781 L484.929775,232.808366 L484.889067,255.895042 L464.929775,267.473658 L445.91894,256.490056 Z M480.925698,235.11703 L465.015268,225.924702 L449.047834,235.187595 L449.015268,253.656935 L464.925698,262.849264 L480.893132,253.586371 L480.925698,235.11703 Z" id="Combined-Shape-Copy-6"></path>
                <path d="M701.56782,206.227777 L686.432336,197.57333 L669.536637,207.295165 L652.486011,197.484184 L637.656693,206.051895 L637.733828,223.298287 L654.595137,233.079727 L654.629842,252.761841 L669.323852,261.251377 L684.517509,252.382199 L684.551899,232.878924 L701.56782,223.007791 L701.56782,206.227777 Z M705.48694,203.661923 L740.06782,223.61604 L740.06782,265.045052 L704.06782,285.759558 L669.549653,265.751907 L634.853452,285.82306 L599,265.108554 L599.073274,223.552538 L633.784062,203.563079 L633.762401,163.814716 L669.615853,143.10021 L705.542579,163.94172 L705.48694,203.661923 Z M689.536637,194.738192 L701.489862,201.573028 L701.539347,166.246158 L669.611776,147.724605 L637.763661,166.125008 L637.782861,201.356961 L649.536637,194.56616 L649.536637,172.770988 L669.536637,161.262929 L689.536637,172.770988 L689.536637,194.738192 Z M653.536637,175.086719 L653.536637,193.471375 L669.536637,202.677822 L685.536637,193.471375 L685.536637,175.086719 L669.536637,165.880271 L653.536637,175.086719 Z M633.728096,222.025568 L633.66648,208.249099 L603.069195,225.869649 L603.004077,262.79989 L634.852192,281.200293 L665.332992,263.567677 L653.579216,256.776876 L634.717261,267.674462 L614.757969,256.095845 L614.717261,233.00917 L633.728096,222.025568 Z M634.721338,263.050067 L650.631768,253.857739 L650.599202,235.388399 L634.631768,226.125505 L618.721338,235.317834 L618.753904,253.787174 L634.721338,263.050067 Z M685.41894,256.490056 L673.527331,263.431689 L704.075132,281.138009 L736.06782,262.729322 L736.06782,225.928515 L705.56782,208.329178 L705.56782,221.910781 L724.429775,232.808366 L724.389067,255.895042 L704.429775,267.473658 L685.41894,256.490056 Z M720.425698,235.11703 L704.515268,225.924702 L688.547834,235.187595 L688.515268,253.656935 L704.425698,262.849264 L720.393132,253.586371 L720.425698,235.11703 Z" id="Combined-Shape-Copy-19"></path>
                <path d="M222.56782,206.227777 L207.432336,197.57333 L190.536637,207.295165 L173.486011,197.484184 L158.656693,206.051895 L158.733828,223.298287 L175.595137,233.079727 L175.629842,252.761841 L190.323852,261.251377 L205.517509,252.382199 L205.551899,232.878924 L222.56782,223.007791 L222.56782,206.227777 Z M226.48694,203.661923 L261.06782,223.61604 L261.06782,265.045052 L225.06782,285.759558 L190.549653,265.751907 L155.853452,285.82306 L120,265.108554 L120.073274,223.552538 L154.784062,203.563079 L154.762401,163.814716 L190.615853,143.10021 L226.542579,163.94172 L226.48694,203.661923 Z M210.536637,194.738192 L222.489862,201.573028 L222.539347,166.246158 L190.611776,147.724605 L158.763661,166.125008 L158.782861,201.356961 L170.536637,194.56616 L170.536637,172.770988 L190.536637,161.262929 L210.536637,172.770988 L210.536637,194.738192 Z M174.536637,175.086719 L174.536637,193.471375 L190.536637,202.677822 L206.536637,193.471375 L206.536637,175.086719 L190.536637,165.880271 L174.536637,175.086719 Z M154.728096,222.025568 L154.66648,208.249099 L124.069195,225.869649 L124.004077,262.79989 L155.852192,281.200293 L186.332992,263.567677 L174.579216,256.776876 L155.717261,267.674462 L135.757969,256.095845 L135.717261,233.00917 L154.728096,222.025568 Z M155.721338,263.050067 L171.631768,253.857739 L171.599202,235.388399 L155.631768,226.125505 L139.721338,235.317834 L139.753904,253.787174 L155.721338,263.050067 Z M206.41894,256.490056 L194.527331,263.431689 L225.075132,281.138009 L257.06782,262.729322 L257.06782,225.928515 L226.56782,208.329178 L226.56782,221.910781 L245.429775,232.808366 L245.389067,255.895042 L225.429775,267.473658 L206.41894,256.490056 Z M241.425698,235.11703 L225.515268,225.924702 L209.547834,235.187595 L209.515268,253.656935 L225.425698,262.849264 L241.393132,253.586371 L241.425698,235.11703 Z" id="Combined-Shape-Copy-10"></path>
                <path d="M462.06782,63.1275665 L446.932336,54.4731197 L430.036637,64.1949544 L412.986011,54.3839738 L398.156693,62.9516843 L398.233828,80.1980766 L415.095137,89.9795172 L415.129842,109.661631 L429.823852,118.151167 L445.017509,109.281989 L445.051899,89.7787137 L462.06782,79.9075806 L462.06782,63.1275665 Z M465.98694,60.5617124 L500.56782,80.5158299 L500.56782,121.944842 L464.56782,142.659348 L430.049653,122.651697 L395.353452,142.72285 L359.5,122.008344 L359.573274,80.4523282 L394.284062,60.462869 L394.262401,20.714506 L430.115853,0 L466.042579,20.8415094 L465.98694,60.5617124 Z M450.036637,51.6379822 L461.989862,58.4728179 L462.039347,23.1459478 L430.111776,4.62439439 L398.263661,23.0247976 L398.282861,58.2567512 L410.036637,51.4659497 L410.036637,29.6707779 L430.036637,18.162719 L450.036637,29.6707779 L450.036637,51.6379822 Z M414.036637,31.9865083 L414.036637,50.3711651 L430.036637,59.5776122 L446.036637,50.3711651 L446.036637,31.9865083 L430.036637,22.7800612 L414.036637,31.9865083 Z M394.228096,78.9253576 L394.16648,65.148889 L363.569195,82.769439 L363.504077,119.69968 L395.352192,138.100083 L425.832992,120.467467 L414.079216,113.676665 L395.217261,124.574251 L375.257969,112.995635 L375.217261,89.9089597 L394.228096,78.9253576 Z M395.221338,119.949857 L411.131768,110.757529 L411.099202,92.2881883 L395.131768,83.0252953 L379.221338,92.2176237 L379.253904,110.686964 L395.221338,119.949857 Z M445.91894,113.389846 L434.027331,120.331479 L464.575132,138.037799 L496.56782,119.629111 L496.56782,82.8283049 L466.06782,65.2289674 L466.06782,78.8105703 L484.929775,89.7081563 L484.889067,112.794831 L464.929775,124.373448 L445.91894,113.389846 Z M480.925698,92.0168202 L465.015268,82.8244918 L449.047834,92.0873849 L449.015268,110.556725 L464.925698,119.749053 L480.893132,110.48616 L480.925698,92.0168202 Z" id="Combined-Shape-Copy-7"></path>
                <path d="M701.56782,63.1275665 L686.432336,54.4731197 L669.536637,64.1949544 L652.486011,54.3839738 L637.656693,62.9516843 L637.733828,80.1980766 L654.595137,89.9795172 L654.629842,109.661631 L669.323852,118.151167 L684.517509,109.281989 L684.551899,89.7787137 L701.56782,79.9075806 L701.56782,63.1275665 Z M705.48694,60.5617124 L740.06782,80.5158299 L740.06782,121.944842 L704.06782,142.659348 L669.549653,122.651697 L634.853452,142.72285 L599,122.008344 L599.073274,80.4523282 L633.784062,60.462869 L633.762401,20.714506 L669.615853,0 L705.542579,20.8415094 L705.48694,60.5617124 Z M689.536637,51.6379822 L701.489862,58.4728179 L701.539347,23.1459478 L669.611776,4.62439439 L637.763661,23.0247976 L637.782861,58.2567512 L649.536637,51.4659497 L649.536637,29.6707779 L669.536637,18.162719 L689.536637,29.6707779 L689.536637,51.6379822 Z M653.536637,31.9865083 L653.536637,50.3711651 L669.536637,59.5776122 L685.536637,50.3711651 L685.536637,31.9865083 L669.536637,22.7800612 L653.536637,31.9865083 Z M633.728096,78.9253576 L633.66648,65.148889 L603.069195,82.769439 L603.004077,119.69968 L634.852192,138.100083 L665.332992,120.467467 L653.579216,113.676665 L634.717261,124.574251 L614.757969,112.995635 L614.717261,89.9089597 L633.728096,78.9253576 Z M634.721338,119.949857 L650.631768,110.757529 L650.599202,92.2881883 L634.631768,83.0252953 L618.721338,92.2176237 L618.753904,110.686964 L634.721338,119.949857 Z M685.41894,113.389846 L673.527331,120.331479 L704.075132,138.037799 L736.06782,119.629111 L736.06782,82.8283049 L705.56782,65.2289674 L705.56782,78.8105703 L724.429775,89.7081563 L724.389067,112.794831 L704.429775,124.373448 L685.41894,113.389846 Z M720.425698,92.0168202 L704.515268,82.8244918 L688.547834,92.0873849 L688.515268,110.556725 L704.425698,119.749053 L720.393132,110.48616 L720.425698,92.0168202 Z" id="Combined-Shape-Copy-20"></path>
                <path d="M222.56782,63.1275665 L207.432336,54.4731197 L190.536637,64.1949544 L173.486011,54.3839738 L158.656693,62.9516843 L158.733828,80.1980766 L175.595137,89.9795172 L175.629842,109.661631 L190.323852,118.151167 L205.517509,109.281989 L205.551899,89.7787137 L222.56782,79.9075806 L222.56782,63.1275665 Z M226.48694,60.5617124 L261.06782,80.5158299 L261.06782,121.944842 L225.06782,142.659348 L190.549653,122.651697 L155.853452,142.72285 L120,122.008344 L120.073274,80.4523282 L154.784062,60.462869 L154.762401,20.714506 L190.615853,0 L226.542579,20.8415094 L226.48694,60.5617124 Z M210.536637,51.6379822 L222.489862,58.4728179 L222.539347,23.1459478 L190.611776,4.62439439 L158.763661,23.0247976 L158.782861,58.2567512 L170.536637,51.4659497 L170.536637,29.6707779 L190.536637,18.162719 L210.536637,29.6707779 L210.536637,51.6379822 Z M174.536637,31.9865083 L174.536637,50.3711651 L190.536637,59.5776122 L206.536637,50.3711651 L206.536637,31.9865083 L190.536637,22.7800612 L174.536637,31.9865083 Z M154.728096,78.9253576 L154.66648,65.148889 L124.069195,82.769439 L124.004077,119.69968 L155.852192,138.100083 L186.332992,120.467467 L174.579216,113.676665 L155.717261,124.574251 L135.757969,112.995635 L135.717261,89.9089597 L154.728096,78.9253576 Z M155.721338,119.949857 L171.631768,110.757529 L171.599202,92.2881883 L155.631768,83.0252953 L139.721338,92.2176237 L139.753904,110.686964 L155.721338,119.949857 Z M206.41894,113.389846 L194.527331,120.331479 L225.075132,138.037799 L257.06782,119.629111 L257.06782,82.8283049 L226.56782,65.2289674 L226.56782,78.8105703 L245.429775,89.7081563 L245.389067,112.794831 L225.429775,124.373448 L206.41894,113.389846 Z M241.425698,92.0168202 L225.515268,82.8244918 L209.547834,92.0873849 L209.515268,110.556725 L225.425698,119.749053 L241.393132,110.48616 L241.425698,92.0168202 Z" id="Combined-Shape-Copy-11"></path>
                <path d="M581.56782,277.277532 L566.432336,268.623085 L549.536637,278.344919 L532.486011,268.533939 L517.656693,277.101649 L517.733828,294.348042 L534.595137,304.129482 L534.629842,323.811596 L549.323852,332.301132 L564.517509,323.431954 L564.551899,303.928679 L581.56782,294.057546 L581.56782,277.277532 Z M585.48694,274.711677 L620.06782,294.665795 L620.06782,336.094807 L584.06782,356.809313 L549.549653,336.801662 L514.853452,356.872814 L479,336.158309 L479.073274,294.602293 L513.784062,274.612834 L513.762401,234.864471 L549.615853,214.149965 L585.542579,234.991474 L585.48694,274.711677 Z M569.536637,265.787947 L581.489862,272.622783 L581.539347,237.295913 L549.611776,218.774359 L517.763661,237.174763 L517.782861,272.406716 L529.536637,265.615915 L529.536637,243.820743 L549.536637,232.312684 L569.536637,243.820743 L569.536637,265.787947 Z M533.536637,246.136473 L533.536637,264.52113 L549.536637,273.727577 L565.536637,264.52113 L565.536637,246.136473 L549.536637,236.930026 L533.536637,246.136473 Z M513.728096,293.075323 L513.66648,279.298854 L483.069195,296.919404 L483.004077,333.849645 L514.852192,352.250048 L545.332992,334.617432 L533.579216,327.82663 L514.717261,338.724216 L494.757969,327.1456 L494.717261,304.058925 L513.728096,293.075323 Z M514.721338,334.099822 L530.631768,324.907493 L530.599202,306.438153 L514.631768,297.17526 L498.721338,306.367589 L498.753904,324.836929 L514.721338,334.099822 Z M565.41894,327.539811 L553.527331,334.481444 L584.075132,352.187764 L616.06782,333.779076 L616.06782,296.97827 L585.56782,279.378932 L585.56782,292.960535 L604.429775,303.858121 L604.389067,326.944796 L584.429775,338.523413 L565.41894,327.539811 Z M600.425698,306.166785 L584.515268,296.974457 L568.547834,306.23735 L568.515268,324.70669 L584.425698,333.899018 L600.393132,324.636125 L600.425698,306.166785 Z" id="Combined-Shape-Copy-2"></path>
                <path d="M821.06782,277.277532 L805.932336,268.623085 L789.036637,278.344919 L771.986011,268.533939 L757.156693,277.101649 L757.233828,294.348042 L774.095137,304.129482 L774.129842,323.811596 L788.823852,332.301132 L804.017509,323.431954 L804.051899,303.928679 L821.06782,294.057546 L821.06782,277.277532 Z M824.98694,274.711677 L859.56782,294.665795 L859.56782,336.094807 L823.56782,356.809313 L789.049653,336.801662 L754.353452,356.872814 L718.5,336.158309 L718.573274,294.602293 L753.284062,274.612834 L753.262401,234.864471 L789.115853,214.149965 L825.042579,234.991474 L824.98694,274.711677 Z M809.036637,265.787947 L820.989862,272.622783 L821.039347,237.295913 L789.111776,218.774359 L757.263661,237.174763 L757.282861,272.406716 L769.036637,265.615915 L769.036637,243.820743 L789.036637,232.312684 L809.036637,243.820743 L809.036637,265.787947 Z M773.036637,246.136473 L773.036637,264.52113 L789.036637,273.727577 L805.036637,264.52113 L805.036637,246.136473 L789.036637,236.930026 L773.036637,246.136473 Z M753.228096,293.075323 L753.16648,279.298854 L722.569195,296.919404 L722.504077,333.849645 L754.352192,352.250048 L784.832992,334.617432 L773.079216,327.82663 L754.217261,338.724216 L734.257969,327.1456 L734.217261,304.058925 L753.228096,293.075323 Z M754.221338,334.099822 L770.131768,324.907493 L770.099202,306.438153 L754.131768,297.17526 L738.221338,306.367589 L738.253904,324.836929 L754.221338,334.099822 Z M804.91894,327.539811 L793.027331,334.481444 L823.575132,352.187764 L855.56782,333.779076 L855.56782,296.97827 L825.06782,279.378932 L825.06782,292.960535 L843.929775,303.858121 L843.889067,326.944796 L823.929775,338.523413 L804.91894,327.539811 Z M839.925698,306.166785 L824.015268,296.974457 L808.047834,306.23735 L808.015268,324.70669 L823.925698,333.899018 L839.893132,324.636125 L839.925698,306.166785 Z" id="Combined-Shape-Copy-21"></path>
                <path d="M342.06782,277.277532 L326.932336,268.623085 L310.036637,278.344919 L292.986011,268.533939 L278.156693,277.101649 L278.233828,294.348042 L295.095137,304.129482 L295.129842,323.811596 L309.823852,332.301132 L325.017509,323.431954 L325.051899,303.928679 L342.06782,294.057546 L342.06782,277.277532 Z M345.98694,274.711677 L380.56782,294.665795 L380.56782,336.094807 L344.56782,356.809313 L310.049653,336.801662 L275.353452,356.872814 L239.5,336.158309 L239.573274,294.602293 L274.284062,274.612834 L274.262401,234.864471 L310.115853,214.149965 L346.042579,234.991474 L345.98694,274.711677 Z M330.036637,265.787947 L341.989862,272.622783 L342.039347,237.295913 L310.111776,218.774359 L278.263661,237.174763 L278.282861,272.406716 L290.036637,265.615915 L290.036637,243.820743 L310.036637,232.312684 L330.036637,243.820743 L330.036637,265.787947 Z M294.036637,246.136473 L294.036637,264.52113 L310.036637,273.727577 L326.036637,264.52113 L326.036637,246.136473 L310.036637,236.930026 L294.036637,246.136473 Z M274.228096,293.075323 L274.16648,279.298854 L243.569195,296.919404 L243.504077,333.849645 L275.352192,352.250048 L305.832992,334.617432 L294.079216,327.82663 L275.217261,338.724216 L255.257969,327.1456 L255.217261,304.058925 L274.228096,293.075323 Z M275.221338,334.099822 L291.131768,324.907493 L291.099202,306.438153 L275.131768,297.17526 L259.221338,306.367589 L259.253904,324.836929 L275.221338,334.099822 Z M325.91894,327.539811 L314.027331,334.481444 L344.575132,352.187764 L376.56782,333.779076 L376.56782,296.97827 L346.06782,279.378932 L346.06782,292.960535 L364.929775,303.858121 L364.889067,326.944796 L344.929775,338.523413 L325.91894,327.539811 Z M360.925698,306.166785 L345.015268,296.974457 L329.047834,306.23735 L329.015268,324.70669 L344.925698,333.899018 L360.893132,324.636125 L360.925698,306.166785 Z" id="Combined-Shape-Copy-12"></path>
                <path d="M102.56782,277.277532 L87.4323358,268.623085 L70.5366371,278.344919 L53.4860105,268.533939 L38.6566925,277.101649 L38.7338282,294.348042 L55.5951375,304.129482 L55.6298422,323.811596 L70.3238521,332.301132 L85.5175091,323.431954 L85.5518985,303.928679 L102.56782,294.057546 L102.56782,277.277532 Z M106.48694,274.711677 L141.06782,294.665795 L141.06782,336.094807 L105.06782,356.809313 L70.5496526,336.801662 L35.8534517,356.872814 L0,336.158309 L0.0732741417,294.602293 L34.7840623,274.612834 L34.762401,234.864471 L70.6158528,214.149965 L106.542579,234.991474 L106.48694,274.711677 Z M90.5366371,265.787947 L102.489862,272.622783 L102.539347,237.295913 L70.6117757,218.774359 L38.7636606,237.174763 L38.7828606,272.406716 L50.5366371,265.615915 L50.5366371,243.820743 L70.5366371,232.312684 L90.5366371,243.820743 L90.5366371,265.787947 Z M54.5366371,246.136473 L54.5366371,264.52113 L70.5366371,273.727577 L86.5366371,264.52113 L86.5366371,246.136473 L70.5366371,236.930026 L54.5366371,246.136473 Z M34.7280958,293.075323 L34.6664796,279.298854 L4.0691947,296.919404 L4.00407701,333.849645 L35.8521921,352.250048 L66.3329921,334.617432 L54.5792157,327.82663 L35.7172611,338.724216 L15.7579689,327.1456 L15.7172611,304.058925 L34.7280958,293.075323 Z M35.7213381,334.099822 L51.6317683,324.907493 L51.5992021,306.438153 L35.6317683,297.17526 L19.7213381,306.367589 L19.7539044,324.836929 L35.7213381,334.099822 Z M86.4189402,327.539811 L74.5273314,334.481444 L105.075132,352.187764 L137.06782,333.779076 L137.06782,296.97827 L106.56782,279.378932 L106.56782,292.960535 L125.429775,303.858121 L125.389067,326.944796 L105.429775,338.523413 L86.4189402,327.539811 Z M121.425698,306.166785 L105.515268,296.974457 L89.5478339,306.23735 L89.5152677,324.70669 L105.425698,333.899018 L121.393132,324.636125 L121.425698,306.166785 Z" id="Combined-Shape-Copy-26"></path>
                <path d="M581.56782,134.677672 L566.432336,126.023225 L549.536637,135.74506 L532.486011,125.934079 L517.656693,134.501789 L517.733828,151.748182 L534.595137,161.529622 L534.629842,181.211736 L549.323852,189.701272 L564.517509,180.832094 L564.551899,161.328819 L581.56782,151.457686 L581.56782,134.677672 Z M585.48694,132.111818 L620.06782,152.065935 L620.06782,193.494947 L584.06782,214.209453 L549.549653,194.201802 L514.853452,214.272955 L479,193.558449 L479.073274,152.002433 L513.784062,132.012974 L513.762401,92.2646111 L549.615853,71.5501051 L585.542579,92.3916145 L585.48694,132.111818 Z M569.536637,123.188087 L581.489862,130.022923 L581.539347,94.6960529 L549.611776,76.1744995 L517.763661,94.5749028 L517.782861,129.806856 L529.536637,123.016055 L529.536637,101.220883 L549.536637,89.7128241 L569.536637,101.220883 L569.536637,123.188087 Z M533.536637,103.536613 L533.536637,121.92127 L549.536637,131.127717 L565.536637,121.92127 L565.536637,103.536613 L549.536637,94.3301663 L533.536637,103.536613 Z M513.728096,150.475463 L513.66648,136.698994 L483.069195,154.319544 L483.004077,191.249785 L514.852192,209.650188 L545.332992,192.017572 L533.579216,185.22677 L514.717261,196.124356 L494.757969,184.54574 L494.717261,161.459065 L513.728096,150.475463 Z M514.721338,191.499962 L530.631768,182.307634 L530.599202,163.838293 L514.631768,154.5754 L498.721338,163.767729 L498.753904,182.237069 L514.721338,191.499962 Z M565.41894,184.939951 L553.527331,191.881584 L584.075132,209.587904 L616.06782,191.179216 L616.06782,154.37841 L585.56782,136.779073 L585.56782,150.360675 L604.429775,161.258261 L604.389067,184.344937 L584.429775,195.923553 L565.41894,184.939951 Z M600.425698,163.566925 L584.515268,154.374597 L568.547834,163.63749 L568.515268,182.10683 L584.425698,191.299159 L600.393132,182.036265 L600.425698,163.566925 Z" id="Combined-Shape-Copy-5"></path>
                <path d="M821.06782,134.677672 L805.932336,126.023225 L789.036637,135.74506 L771.986011,125.934079 L757.156693,134.501789 L757.233828,151.748182 L774.095137,161.529622 L774.129842,181.211736 L788.823852,189.701272 L804.017509,180.832094 L804.051899,161.328819 L821.06782,151.457686 L821.06782,134.677672 Z M824.98694,132.111818 L859.56782,152.065935 L859.56782,193.494947 L823.56782,214.209453 L789.049653,194.201802 L754.353452,214.272955 L718.5,193.558449 L718.573274,152.002433 L753.284062,132.012974 L753.262401,92.2646111 L789.115853,71.5501051 L825.042579,92.3916145 L824.98694,132.111818 Z M809.036637,123.188087 L820.989862,130.022923 L821.039347,94.6960529 L789.111776,76.1744995 L757.263661,94.5749028 L757.282861,129.806856 L769.036637,123.016055 L769.036637,101.220883 L789.036637,89.7128241 L809.036637,101.220883 L809.036637,123.188087 Z M773.036637,103.536613 L773.036637,121.92127 L789.036637,131.127717 L805.036637,121.92127 L805.036637,103.536613 L789.036637,94.3301663 L773.036637,103.536613 Z M753.228096,150.475463 L753.16648,136.698994 L722.569195,154.319544 L722.504077,191.249785 L754.352192,209.650188 L784.832992,192.017572 L773.079216,185.22677 L754.217261,196.124356 L734.257969,184.54574 L734.217261,161.459065 L753.228096,150.475463 Z M754.221338,191.499962 L770.131768,182.307634 L770.099202,163.838293 L754.131768,154.5754 L738.221338,163.767729 L738.253904,182.237069 L754.221338,191.499962 Z M804.91894,184.939951 L793.027331,191.881584 L823.575132,209.587904 L855.56782,191.179216 L855.56782,154.37841 L825.06782,136.779073 L825.06782,150.360675 L843.929775,161.258261 L843.889067,184.344937 L823.929775,195.923553 L804.91894,184.939951 Z M839.925698,163.566925 L824.015268,154.374597 L808.047834,163.63749 L808.015268,182.10683 L823.925698,191.299159 L839.893132,182.036265 L839.925698,163.566925 Z" id="Combined-Shape-Copy-22"></path>
                <path d="M342.06782,134.677672 L326.932336,126.023225 L310.036637,135.74506 L292.986011,125.934079 L278.156693,134.501789 L278.233828,151.748182 L295.095137,161.529622 L295.129842,181.211736 L309.823852,189.701272 L325.017509,180.832094 L325.051899,161.328819 L342.06782,151.457686 L342.06782,134.677672 Z M345.98694,132.111818 L380.56782,152.065935 L380.56782,193.494947 L344.56782,214.209453 L310.049653,194.201802 L275.353452,214.272955 L239.5,193.558449 L239.573274,152.002433 L274.284062,132.012974 L274.262401,92.2646111 L310.115853,71.5501051 L346.042579,92.3916145 L345.98694,132.111818 Z M330.036637,123.188087 L341.989862,130.022923 L342.039347,94.6960529 L310.111776,76.1744995 L278.263661,94.5749028 L278.282861,129.806856 L290.036637,123.016055 L290.036637,101.220883 L310.036637,89.7128241 L330.036637,101.220883 L330.036637,123.188087 Z M294.036637,103.536613 L294.036637,121.92127 L310.036637,131.127717 L326.036637,121.92127 L326.036637,103.536613 L310.036637,94.3301663 L294.036637,103.536613 Z M274.228096,150.475463 L274.16648,136.698994 L243.569195,154.319544 L243.504077,191.249785 L275.352192,209.650188 L305.832992,192.017572 L294.079216,185.22677 L275.217261,196.124356 L255.257969,184.54574 L255.217261,161.459065 L274.228096,150.475463 Z M275.221338,191.499962 L291.131768,182.307634 L291.099202,163.838293 L275.131768,154.5754 L259.221338,163.767729 L259.253904,182.237069 L275.221338,191.499962 Z M325.91894,184.939951 L314.027331,191.881584 L344.575132,209.587904 L376.56782,191.179216 L376.56782,154.37841 L346.06782,136.779073 L346.06782,150.360675 L364.929775,161.258261 L364.889067,184.344937 L344.929775,195.923553 L325.91894,184.939951 Z M360.925698,163.566925 L345.015268,154.374597 L329.047834,163.63749 L329.015268,182.10683 L344.925698,191.299159 L360.893132,182.036265 L360.925698,163.566925 Z" id="Combined-Shape-Copy-13"></path>
                <path d="M102.56782,134.677672 L87.4323358,126.023225 L70.5366371,135.74506 L53.4860105,125.934079 L38.6566925,134.501789 L38.7338282,151.748182 L55.5951375,161.529622 L55.6298422,181.211736 L70.3238521,189.701272 L85.5175091,180.832094 L85.5518985,161.328819 L102.56782,151.457686 L102.56782,134.677672 Z M106.48694,132.111818 L141.06782,152.065935 L141.06782,193.494947 L105.06782,214.209453 L70.5496526,194.201802 L35.8534517,214.272955 L0,193.558449 L0.0732741417,152.002433 L34.7840623,132.012974 L34.762401,92.2646111 L70.6158528,71.5501051 L106.542579,92.3916145 L106.48694,132.111818 Z M90.5366371,123.188087 L102.489862,130.022923 L102.539347,94.6960529 L70.6117757,76.1744995 L38.7636606,94.5749028 L38.7828606,129.806856 L50.5366371,123.016055 L50.5366371,101.220883 L70.5366371,89.7128241 L90.5366371,101.220883 L90.5366371,123.188087 Z M54.5366371,103.536613 L54.5366371,121.92127 L70.5366371,131.127717 L86.5366371,121.92127 L86.5366371,103.536613 L70.5366371,94.3301663 L54.5366371,103.536613 Z M34.7280958,150.475463 L34.6664796,136.698994 L4.0691947,154.319544 L4.00407701,191.249785 L35.8521921,209.650188 L66.3329921,192.017572 L54.5792157,185.22677 L35.7172611,196.124356 L15.7579689,184.54574 L15.7172611,161.459065 L34.7280958,150.475463 Z M35.7213381,191.499962 L51.6317683,182.307634 L51.5992021,163.838293 L35.6317683,154.5754 L19.7213381,163.767729 L19.7539044,182.237069 L35.7213381,191.499962 Z M86.4189402,184.939951 L74.5273314,191.881584 L105.075132,209.587904 L137.06782,191.179216 L137.06782,154.37841 L106.56782,136.779073 L106.56782,150.360675 L125.429775,161.258261 L125.389067,184.344937 L105.429775,195.923553 L86.4189402,184.939951 Z M121.425698,163.566925 L105.515268,154.374597 L89.5478339,163.63749 L89.5152677,182.10683 L105.425698,191.299159 L121.393132,182.036265 L121.425698,163.566925 Z" id="Combined-Shape-Copy-27"></path>
                <path d="M462.06782,490.927146 L446.932336,482.272699 L430.036637,491.994534 L412.986011,482.183553 L398.156693,490.751264 L398.233828,507.997656 L415.095137,517.779097 L415.129842,537.461211 L429.823852,545.950746 L445.017509,537.081569 L445.051899,517.578293 L462.06782,507.70716 L462.06782,490.927146 Z M465.98694,488.361292 L500.56782,508.315409 L500.56782,549.744421 L464.56782,570.458927 L430.049653,550.451276 L395.353452,570.522429 L359.5,549.807923 L359.573274,508.251908 L394.284062,488.262449 L394.262401,448.514085 L430.115853,427.79958 L466.042579,448.641089 L465.98694,488.361292 Z M450.036637,479.437562 L461.989862,486.272397 L462.039347,450.945527 L430.111776,432.423974 L398.263661,450.824377 L398.282861,486.056331 L410.036637,479.265529 L410.036637,457.470357 L430.036637,445.962299 L450.036637,457.470357 L450.036637,479.437562 Z M414.036637,459.786088 L414.036637,478.170745 L430.036637,487.377192 L446.036637,478.170745 L446.036637,459.786088 L430.036637,450.579641 L414.036637,459.786088 Z M394.228096,506.724937 L394.16648,492.948469 L363.569195,510.569019 L363.504077,547.499259 L395.352192,565.899662 L425.832992,548.267046 L414.079216,541.476245 L395.217261,552.373831 L375.257969,540.795214 L375.217261,517.708539 L394.228096,506.724937 Z M395.221338,547.749436 L411.131768,538.557108 L411.099202,520.087768 L395.131768,510.824875 L379.221338,520.017203 L379.253904,538.486543 L395.221338,547.749436 Z M445.91894,541.189425 L434.027331,548.131058 L464.575132,565.837378 L496.56782,547.428691 L496.56782,510.627884 L466.06782,493.028547 L466.06782,506.61015 L484.929775,517.507736 L484.889067,540.594411 L464.929775,552.173027 L445.91894,541.189425 Z M480.925698,519.8164 L465.015268,510.624071 L449.047834,519.886964 L449.015268,538.356305 L464.925698,547.548633 L480.893132,538.28574 L480.925698,519.8164 Z" id="Combined-Shape-Copy"></path>
                <path d="M701.56782,490.927146 L686.432336,482.272699 L669.536637,491.994534 L652.486011,482.183553 L637.656693,490.751264 L637.733828,507.997656 L654.595137,517.779097 L654.629842,537.461211 L669.323852,545.950746 L684.517509,537.081569 L684.551899,517.578293 L701.56782,507.70716 L701.56782,490.927146 Z M705.48694,488.361292 L740.06782,508.315409 L740.06782,549.744421 L704.06782,570.458927 L669.549653,550.451276 L634.853452,570.522429 L599,549.807923 L599.073274,508.251908 L633.784062,488.262449 L633.762401,448.514085 L669.615853,427.79958 L705.542579,448.641089 L705.48694,488.361292 Z M689.536637,479.437562 L701.489862,486.272397 L701.539347,450.945527 L669.611776,432.423974 L637.763661,450.824377 L637.782861,486.056331 L649.536637,479.265529 L649.536637,457.470357 L669.536637,445.962299 L689.536637,457.470357 L689.536637,479.437562 Z M653.536637,459.786088 L653.536637,478.170745 L669.536637,487.377192 L685.536637,478.170745 L685.536637,459.786088 L669.536637,450.579641 L653.536637,459.786088 Z M633.728096,506.724937 L633.66648,492.948469 L603.069195,510.569019 L603.004077,547.499259 L634.852192,565.899662 L665.332992,548.267046 L653.579216,541.476245 L634.717261,552.373831 L614.757969,540.795214 L614.717261,517.708539 L633.728096,506.724937 Z M634.721338,547.749436 L650.631768,538.557108 L650.599202,520.087768 L634.631768,510.824875 L618.721338,520.017203 L618.753904,538.486543 L634.721338,547.749436 Z M685.41894,541.189425 L673.527331,548.131058 L704.075132,565.837378 L736.06782,547.428691 L736.06782,510.627884 L705.56782,493.028547 L705.56782,506.61015 L724.429775,517.507736 L724.389067,540.594411 L704.429775,552.173027 L685.41894,541.189425 Z M720.425698,519.8164 L704.515268,510.624071 L688.547834,519.886964 L688.515268,538.356305 L704.425698,547.548633 L720.393132,538.28574 L720.425698,519.8164 Z" id="Combined-Shape-Copy-23"></path>
                <path d="M701.56782,633.527006 L686.432336,624.872559 L669.536637,634.594394 L652.486011,624.783413 L637.656693,633.351124 L637.733828,650.597516 L654.595137,660.378957 L654.629842,680.06107 L669.323852,688.550606 L684.517509,679.681429 L684.551899,660.178153 L701.56782,650.30702 L701.56782,633.527006 Z M705.48694,630.961152 L740.06782,650.915269 L740.06782,692.344281 L704.06782,713.058787 L669.549653,693.051136 L634.853452,713.122289 L599,692.407783 L599.073274,650.851768 L633.784062,630.862308 L633.762401,591.113945 L669.615853,570.399439 L705.542579,591.240949 L705.48694,630.961152 Z M689.536637,622.037422 L701.489862,628.872257 L701.539347,593.545387 L669.611776,575.023834 L637.763661,593.424237 L637.782861,628.656191 L649.536637,621.865389 L649.536637,600.070217 L669.536637,588.562158 L689.536637,600.070217 L689.536637,622.037422 Z M653.536637,602.385948 L653.536637,620.770605 L669.536637,629.977052 L685.536637,620.770605 L685.536637,602.385948 L669.536637,593.179501 L653.536637,602.385948 Z M633.728096,649.324797 L633.66648,635.548328 L603.069195,653.168878 L603.004077,690.099119 L634.852192,708.499522 L665.332992,690.866906 L653.579216,684.076105 L634.717261,694.973691 L614.757969,683.395074 L614.717261,660.308399 L633.728096,649.324797 Z M634.721338,690.349296 L650.631768,681.156968 L650.599202,662.687628 L634.631768,653.424735 L618.721338,662.617063 L618.753904,681.086403 L634.721338,690.349296 Z M685.41894,683.789285 L673.527331,690.730918 L704.075132,708.437238 L736.06782,690.028551 L736.06782,653.227744 L705.56782,635.628407 L705.56782,649.21001 L724.429775,660.107596 L724.389067,683.194271 L704.429775,694.772887 L685.41894,683.789285 Z M720.425698,662.41626 L704.515268,653.223931 L688.547834,662.486824 L688.515268,680.956164 L704.425698,690.148493 L720.393132,680.8856 L720.425698,662.41626 Z" id="Combined-Shape-Copy-30"></path>
                <path d="M222.56782,490.927146 L207.432336,482.272699 L190.536637,491.994534 L173.486011,482.183553 L158.656693,490.751264 L158.733828,507.997656 L175.595137,517.779097 L175.629842,537.461211 L190.323852,545.950746 L205.517509,537.081569 L205.551899,517.578293 L222.56782,507.70716 L222.56782,490.927146 Z M226.48694,488.361292 L261.06782,508.315409 L261.06782,549.744421 L225.06782,570.458927 L190.549653,550.451276 L155.853452,570.522429 L120,549.807923 L120.073274,508.251908 L154.784062,488.262449 L154.762401,448.514085 L190.615853,427.79958 L226.542579,448.641089 L226.48694,488.361292 Z M210.536637,479.437562 L222.489862,486.272397 L222.539347,450.945527 L190.611776,432.423974 L158.763661,450.824377 L158.782861,486.056331 L170.536637,479.265529 L170.536637,457.470357 L190.536637,445.962299 L210.536637,457.470357 L210.536637,479.437562 Z M174.536637,459.786088 L174.536637,478.170745 L190.536637,487.377192 L206.536637,478.170745 L206.536637,459.786088 L190.536637,450.579641 L174.536637,459.786088 Z M154.728096,506.724937 L154.66648,492.948469 L124.069195,510.569019 L124.004077,547.499259 L155.852192,565.899662 L186.332992,548.267046 L174.579216,541.476245 L155.717261,552.373831 L135.757969,540.795214 L135.717261,517.708539 L154.728096,506.724937 Z M155.721338,547.749436 L171.631768,538.557108 L171.599202,520.087768 L155.631768,510.824875 L139.721338,520.017203 L139.753904,538.486543 L155.721338,547.749436 Z M206.41894,541.189425 L194.527331,548.131058 L225.075132,565.837378 L257.06782,547.428691 L257.06782,510.627884 L226.56782,493.028547 L226.56782,506.61015 L245.429775,517.507736 L245.389067,540.594411 L225.429775,552.173027 L206.41894,541.189425 Z M241.425698,519.8164 L225.515268,510.624071 L209.547834,519.886964 L209.515268,538.356305 L225.425698,547.548633 L241.393132,538.28574 L241.425698,519.8164 Z" id="Combined-Shape-Copy-14"></path>
                <path d="M462.06782,634.027356 L446.932336,625.372909 L430.036637,635.094744 L412.986011,625.283764 L398.156693,633.851474 L398.233828,651.097866 L415.095137,660.879307 L415.129842,680.561421 L429.823852,689.050956 L445.017509,680.181779 L445.051899,660.678504 L462.06782,650.80737 L462.06782,634.027356 Z M465.98694,631.461502 L500.56782,651.41562 L500.56782,692.844632 L464.56782,713.559138 L430.049653,693.551487 L395.353452,713.622639 L359.5,692.908133 L359.573274,651.352118 L394.284062,631.362659 L394.262401,591.614296 L430.115853,570.89979 L466.042579,591.741299 L465.98694,631.461502 Z M450.036637,622.537772 L461.989862,629.372608 L462.039347,594.045738 L430.111776,575.524184 L398.263661,593.924587 L398.282861,629.156541 L410.036637,622.36574 L410.036637,600.570568 L430.036637,589.062509 L450.036637,600.570568 L450.036637,622.537772 Z M414.036637,602.886298 L414.036637,621.270955 L430.036637,630.477402 L446.036637,621.270955 L446.036637,602.886298 L430.036637,593.679851 L414.036637,602.886298 Z M394.228096,649.825147 L394.16648,636.048679 L363.569195,653.669229 L363.504077,690.599469 L395.352192,708.999873 L425.832992,691.367257 L414.079216,684.576455 L395.217261,695.474041 L375.257969,683.895425 L375.217261,660.80875 L394.228096,649.825147 Z M395.221338,690.849647 L411.131768,681.657318 L411.099202,663.187978 L395.131768,653.925085 L379.221338,663.117413 L379.253904,681.586754 L395.221338,690.849647 Z M445.91894,684.289635 L434.027331,691.231268 L464.575132,708.937588 L496.56782,690.528901 L496.56782,653.728095 L466.06782,636.128757 L466.06782,649.71036 L484.929775,660.607946 L484.889067,683.694621 L464.929775,695.273238 L445.91894,684.289635 Z M480.925698,662.91661 L465.015268,653.724282 L449.047834,662.987175 L449.015268,681.456515 L464.925698,690.648843 L480.893132,681.38595 L480.925698,662.91661 Z" id="Combined-Shape-Copy-8"></path>
                <path d="M222.56782,634.027356 L207.432336,625.372909 L190.536637,635.094744 L173.486011,625.283764 L158.656693,633.851474 L158.733828,651.097866 L175.595137,660.879307 L175.629842,680.561421 L190.323852,689.050956 L205.517509,680.181779 L205.551899,660.678504 L222.56782,650.80737 L222.56782,634.027356 Z M226.48694,631.461502 L261.06782,651.41562 L261.06782,692.844632 L225.06782,713.559138 L190.549653,693.551487 L155.853452,713.622639 L120,692.908133 L120.073274,651.352118 L154.784062,631.362659 L154.762401,591.614296 L190.615853,570.89979 L226.542579,591.741299 L226.48694,631.461502 Z M210.536637,622.537772 L222.489862,629.372608 L222.539347,594.045738 L190.611776,575.524184 L158.763661,593.924587 L158.782861,629.156541 L170.536637,622.36574 L170.536637,600.570568 L190.536637,589.062509 L210.536637,600.570568 L210.536637,622.537772 Z M174.536637,602.886298 L174.536637,621.270955 L190.536637,630.477402 L206.536637,621.270955 L206.536637,602.886298 L190.536637,593.679851 L174.536637,602.886298 Z M154.728096,649.825147 L154.66648,636.048679 L124.069195,653.669229 L124.004077,690.599469 L155.852192,708.999873 L186.332992,691.367257 L174.579216,684.576455 L155.717261,695.474041 L135.757969,683.895425 L135.717261,660.80875 L154.728096,649.825147 Z M155.721338,690.849647 L171.631768,681.657318 L171.599202,663.187978 L155.631768,653.925085 L139.721338,663.117413 L139.753904,681.586754 L155.721338,690.849647 Z M206.41894,684.289635 L194.527331,691.231268 L225.075132,708.937588 L257.06782,690.528901 L257.06782,653.728095 L226.56782,636.128757 L226.56782,649.71036 L245.429775,660.607946 L245.389067,683.694621 L225.429775,695.273238 L206.41894,684.289635 Z M241.425698,662.91661 L225.515268,653.724282 L209.547834,662.987175 L209.515268,681.456515 L225.425698,690.648843 L241.393132,681.38595 L241.425698,662.91661 Z" id="Combined-Shape-Copy-15"></path>
                <path d="M581.56782,419.877391 L566.432336,411.222945 L549.536637,420.944779 L532.486011,411.133799 L517.656693,419.701509 L517.733828,436.947901 L534.595137,446.729342 L534.629842,466.411456 L549.323852,474.900991 L564.517509,466.031814 L564.551899,446.528539 L581.56782,436.657405 L581.56782,419.877391 Z M585.48694,417.311537 L620.06782,437.265655 L620.06782,478.694667 L584.06782,499.409173 L549.549653,479.401522 L514.853452,499.472674 L479,478.758168 L479.073274,437.202153 L513.784062,417.212694 L513.762401,377.464331 L549.615853,356.749825 L585.542579,377.591334 L585.48694,417.311537 Z M569.536637,408.387807 L581.489862,415.222643 L581.539347,379.895773 L549.611776,361.374219 L517.763661,379.774622 L517.782861,415.006576 L529.536637,408.215775 L529.536637,386.420603 L549.536637,374.912544 L569.536637,386.420603 L569.536637,408.387807 Z M533.536637,388.736333 L533.536637,407.12099 L549.536637,416.327437 L565.536637,407.12099 L565.536637,388.736333 L549.536637,379.529886 L533.536637,388.736333 Z M513.728096,435.675182 L513.66648,421.898714 L483.069195,439.519264 L483.004077,476.449504 L514.852192,494.849908 L545.332992,477.217292 L533.579216,470.42649 L514.717261,481.324076 L494.757969,469.74546 L494.717261,446.658785 L513.728096,435.675182 Z M514.721338,476.699682 L530.631768,467.507353 L530.599202,449.038013 L514.631768,439.77512 L498.721338,448.967448 L498.753904,467.436789 L514.721338,476.699682 Z M565.41894,470.13967 L553.527331,477.081303 L584.075132,494.787623 L616.06782,476.378936 L616.06782,439.57813 L585.56782,421.978792 L585.56782,435.560395 L604.429775,446.457981 L604.389067,469.544656 L584.429775,481.123273 L565.41894,470.13967 Z M600.425698,448.766645 L584.515268,439.574317 L568.547834,448.83721 L568.515268,467.30655 L584.425698,476.498878 L600.393132,467.235985 L600.425698,448.766645 Z" id="Combined-Shape-Copy-3"></path>
                <path d="M821.06782,419.877391 L805.932336,411.222945 L789.036637,420.944779 L771.986011,411.133799 L757.156693,419.701509 L757.233828,436.947901 L774.095137,446.729342 L774.129842,466.411456 L788.823852,474.900991 L804.017509,466.031814 L804.051899,446.528539 L821.06782,436.657405 L821.06782,419.877391 Z M824.98694,417.311537 L859.56782,437.265655 L859.56782,478.694667 L823.56782,499.409173 L789.049653,479.401522 L754.353452,499.472674 L718.5,478.758168 L718.573274,437.202153 L753.284062,417.212694 L753.262401,377.464331 L789.115853,356.749825 L825.042579,377.591334 L824.98694,417.311537 Z M809.036637,408.387807 L820.989862,415.222643 L821.039347,379.895773 L789.111776,361.374219 L757.263661,379.774622 L757.282861,415.006576 L769.036637,408.215775 L769.036637,386.420603 L789.036637,374.912544 L809.036637,386.420603 L809.036637,408.387807 Z M773.036637,388.736333 L773.036637,407.12099 L789.036637,416.327437 L805.036637,407.12099 L805.036637,388.736333 L789.036637,379.529886 L773.036637,388.736333 Z M753.228096,435.675182 L753.16648,421.898714 L722.569195,439.519264 L722.504077,476.449504 L754.352192,494.849908 L784.832992,477.217292 L773.079216,470.42649 L754.217261,481.324076 L734.257969,469.74546 L734.217261,446.658785 L753.228096,435.675182 Z M754.221338,476.699682 L770.131768,467.507353 L770.099202,449.038013 L754.131768,439.77512 L738.221338,448.967448 L738.253904,467.436789 L754.221338,476.699682 Z M804.91894,470.13967 L793.027331,477.081303 L823.575132,494.787623 L855.56782,476.378936 L855.56782,439.57813 L825.06782,421.978792 L825.06782,435.560395 L843.929775,446.457981 L843.889067,469.544656 L823.929775,481.123273 L804.91894,470.13967 Z M839.925698,448.766645 L824.015268,439.574317 L808.047834,448.83721 L808.015268,467.30655 L823.925698,476.498878 L839.893132,467.235985 L839.925698,448.766645 Z" id="Combined-Shape-Copy-24"></path>
                <path d="M342.06782,419.877391 L326.932336,411.222945 L310.036637,420.944779 L292.986011,411.133799 L278.156693,419.701509 L278.233828,436.947901 L295.095137,446.729342 L295.129842,466.411456 L309.823852,474.900991 L325.017509,466.031814 L325.051899,446.528539 L342.06782,436.657405 L342.06782,419.877391 Z M345.98694,417.311537 L380.56782,437.265655 L380.56782,478.694667 L344.56782,499.409173 L310.049653,479.401522 L275.353452,499.472674 L239.5,478.758168 L239.573274,437.202153 L274.284062,417.212694 L274.262401,377.464331 L310.115853,356.749825 L346.042579,377.591334 L345.98694,417.311537 Z M330.036637,408.387807 L341.989862,415.222643 L342.039347,379.895773 L310.111776,361.374219 L278.263661,379.774622 L278.282861,415.006576 L290.036637,408.215775 L290.036637,386.420603 L310.036637,374.912544 L330.036637,386.420603 L330.036637,408.387807 Z M294.036637,388.736333 L294.036637,407.12099 L310.036637,416.327437 L326.036637,407.12099 L326.036637,388.736333 L310.036637,379.529886 L294.036637,388.736333 Z M274.228096,435.675182 L274.16648,421.898714 L243.569195,439.519264 L243.504077,476.449504 L275.352192,494.849908 L305.832992,477.217292 L294.079216,470.42649 L275.217261,481.324076 L255.257969,469.74546 L255.217261,446.658785 L274.228096,435.675182 Z M275.221338,476.699682 L291.131768,467.507353 L291.099202,449.038013 L275.131768,439.77512 L259.221338,448.967448 L259.253904,467.436789 L275.221338,476.699682 Z M325.91894,470.13967 L314.027331,477.081303 L344.575132,494.787623 L376.56782,476.378936 L376.56782,439.57813 L346.06782,421.978792 L346.06782,435.560395 L364.929775,446.457981 L364.889067,469.544656 L344.929775,481.123273 L325.91894,470.13967 Z M360.925698,448.766645 L345.015268,439.574317 L329.047834,448.83721 L329.015268,467.30655 L344.925698,476.498878 L360.893132,467.235985 L360.925698,448.766645 Z" id="Combined-Shape-Copy-16"></path>
                <path d="M102.56782,419.877391 L87.4323358,411.222945 L70.5366371,420.944779 L53.4860105,411.133799 L38.6566925,419.701509 L38.7338282,436.947901 L55.5951375,446.729342 L55.6298422,466.411456 L70.3238521,474.900991 L85.5175091,466.031814 L85.5518985,446.528539 L102.56782,436.657405 L102.56782,419.877391 Z M106.48694,417.311537 L141.06782,437.265655 L141.06782,478.694667 L105.06782,499.409173 L70.5496526,479.401522 L35.8534517,499.472674 L0,478.758168 L0.0732741417,437.202153 L34.7840623,417.212694 L34.762401,377.464331 L70.6158528,356.749825 L106.542579,377.591334 L106.48694,417.311537 Z M90.5366371,408.387807 L102.489862,415.222643 L102.539347,379.895773 L70.6117757,361.374219 L38.7636606,379.774622 L38.7828606,415.006576 L50.5366371,408.215775 L50.5366371,386.420603 L70.5366371,374.912544 L90.5366371,386.420603 L90.5366371,408.387807 Z M54.5366371,388.736333 L54.5366371,407.12099 L70.5366371,416.327437 L86.5366371,407.12099 L86.5366371,388.736333 L70.5366371,379.529886 L54.5366371,388.736333 Z M34.7280958,435.675182 L34.6664796,421.898714 L4.0691947,439.519264 L4.00407701,476.449504 L35.8521921,494.849908 L66.3329921,477.217292 L54.5792157,470.42649 L35.7172611,481.324076 L15.7579689,469.74546 L15.7172611,446.658785 L34.7280958,435.675182 Z M35.7213381,476.699682 L51.6317683,467.507353 L51.5992021,449.038013 L35.6317683,439.77512 L19.7213381,448.967448 L19.7539044,467.436789 L35.7213381,476.699682 Z M86.4189402,470.13967 L74.5273314,477.081303 L105.075132,494.787623 L137.06782,476.378936 L137.06782,439.57813 L106.56782,421.978792 L106.56782,435.560395 L125.429775,446.457981 L125.389067,469.544656 L105.429775,481.123273 L86.4189402,470.13967 Z M121.425698,448.766645 L105.515268,439.574317 L89.5478339,448.83721 L89.5152677,467.30655 L105.425698,476.498878 L121.393132,467.235985 L121.425698,448.766645 Z" id="Combined-Shape-Copy-28"></path>
                <path d="M581.56782,562.477251 L566.432336,553.822804 L549.536637,563.544639 L532.486011,553.733658 L517.656693,562.301369 L517.733828,579.547761 L534.595137,589.329202 L534.629842,609.011316 L549.323852,617.500851 L564.517509,608.631674 L564.551899,589.128398 L581.56782,579.257265 L581.56782,562.477251 Z M585.48694,559.911397 L620.06782,579.865515 L620.06782,621.294526 L584.06782,642.009032 L549.549653,622.001382 L514.853452,642.072534 L479,621.358028 L479.073274,579.802013 L513.784062,559.812554 L513.762401,520.064191 L549.615853,499.349685 L585.542579,520.191194 L585.48694,559.911397 Z M569.536637,550.987667 L581.489862,557.822503 L581.539347,522.495632 L549.611776,503.974079 L517.763661,522.374482 L517.782861,557.606436 L529.536637,550.815634 L529.536637,529.020463 L549.536637,517.512404 L569.536637,529.020463 L569.536637,550.987667 Z M533.536637,531.336193 L533.536637,549.72085 L549.536637,558.927297 L565.536637,549.72085 L565.536637,531.336193 L549.536637,522.129746 L533.536637,531.336193 Z M513.728096,578.275042 L513.66648,564.498574 L483.069195,582.119124 L483.004077,619.049364 L514.852192,637.449768 L545.332992,619.817151 L533.579216,613.02635 L514.717261,623.923936 L494.757969,612.34532 L494.717261,589.258644 L513.728096,578.275042 Z M514.721338,619.299542 L530.631768,610.107213 L530.599202,591.637873 L514.631768,582.37498 L498.721338,591.567308 L498.753904,610.036648 L514.721338,619.299542 Z M565.41894,612.73953 L553.527331,619.681163 L584.075132,637.387483 L616.06782,618.978796 L616.06782,582.17799 L585.56782,564.578652 L585.56782,578.160255 L604.429775,589.057841 L604.389067,612.144516 L584.429775,623.723132 L565.41894,612.73953 Z M600.425698,591.366505 L584.515268,582.174176 L568.547834,591.43707 L568.515268,609.90641 L584.425698,619.098738 L600.393132,609.835845 L600.425698,591.366505 Z" id="Combined-Shape-Copy-4"></path>
                <path d="M821.06782,562.477251 L805.932336,553.822804 L789.036637,563.544639 L771.986011,553.733658 L757.156693,562.301369 L757.233828,579.547761 L774.095137,589.329202 L774.129842,609.011316 L788.823852,617.500851 L804.017509,608.631674 L804.051899,589.128398 L821.06782,579.257265 L821.06782,562.477251 Z M824.98694,559.911397 L859.56782,579.865515 L859.56782,621.294526 L823.56782,642.009032 L789.049653,622.001382 L754.353452,642.072534 L718.5,621.358028 L718.573274,579.802013 L753.284062,559.812554 L753.262401,520.064191 L789.115853,499.349685 L825.042579,520.191194 L824.98694,559.911397 Z M809.036637,550.987667 L820.989862,557.822503 L821.039347,522.495632 L789.111776,503.974079 L757.263661,522.374482 L757.282861,557.606436 L769.036637,550.815634 L769.036637,529.020463 L789.036637,517.512404 L809.036637,529.020463 L809.036637,550.987667 Z M773.036637,531.336193 L773.036637,549.72085 L789.036637,558.927297 L805.036637,549.72085 L805.036637,531.336193 L789.036637,522.129746 L773.036637,531.336193 Z M753.228096,578.275042 L753.16648,564.498574 L722.569195,582.119124 L722.504077,619.049364 L754.352192,637.449768 L784.832992,619.817151 L773.079216,613.02635 L754.217261,623.923936 L734.257969,612.34532 L734.217261,589.258644 L753.228096,578.275042 Z M754.221338,619.299542 L770.131768,610.107213 L770.099202,591.637873 L754.131768,582.37498 L738.221338,591.567308 L738.253904,610.036648 L754.221338,619.299542 Z M804.91894,612.73953 L793.027331,619.681163 L823.575132,637.387483 L855.56782,618.978796 L855.56782,582.17799 L825.06782,564.578652 L825.06782,578.160255 L843.929775,589.057841 L843.889067,612.144516 L823.929775,623.723132 L804.91894,612.73953 Z M839.925698,591.366505 L824.015268,582.174176 L808.047834,591.43707 L808.015268,609.90641 L823.925698,619.098738 L839.893132,609.835845 L839.925698,591.366505 Z" id="Combined-Shape-Copy-25"></path>
                <path d="M342.06782,562.477251 L326.932336,553.822804 L310.036637,563.544639 L292.986011,553.733658 L278.156693,562.301369 L278.233828,579.547761 L295.095137,589.329202 L295.129842,609.011316 L309.823852,617.500851 L325.017509,608.631674 L325.051899,589.128398 L342.06782,579.257265 L342.06782,562.477251 Z M345.98694,559.911397 L380.56782,579.865515 L380.56782,621.294526 L344.56782,642.009032 L310.049653,622.001382 L275.353452,642.072534 L239.5,621.358028 L239.573274,579.802013 L274.284062,559.812554 L274.262401,520.064191 L310.115853,499.349685 L346.042579,520.191194 L345.98694,559.911397 Z M330.036637,550.987667 L341.989862,557.822503 L342.039347,522.495632 L310.111776,503.974079 L278.263661,522.374482 L278.282861,557.606436 L290.036637,550.815634 L290.036637,529.020463 L310.036637,517.512404 L330.036637,529.020463 L330.036637,550.987667 Z M294.036637,531.336193 L294.036637,549.72085 L310.036637,558.927297 L326.036637,549.72085 L326.036637,531.336193 L310.036637,522.129746 L294.036637,531.336193 Z M274.228096,578.275042 L274.16648,564.498574 L243.569195,582.119124 L243.504077,619.049364 L275.352192,637.449768 L305.832992,619.817151 L294.079216,613.02635 L275.217261,623.923936 L255.257969,612.34532 L255.217261,589.258644 L274.228096,578.275042 Z M275.221338,619.299542 L291.131768,610.107213 L291.099202,591.637873 L275.131768,582.37498 L259.221338,591.567308 L259.253904,610.036648 L275.221338,619.299542 Z M325.91894,612.73953 L314.027331,619.681163 L344.575132,637.387483 L376.56782,618.978796 L376.56782,582.17799 L346.06782,564.578652 L346.06782,578.160255 L364.929775,589.057841 L364.889067,612.144516 L344.929775,623.723132 L325.91894,612.73953 Z M360.925698,591.366505 L345.015268,582.174176 L329.047834,591.43707 L329.015268,609.90641 L344.925698,619.098738 L360.893132,609.835845 L360.925698,591.366505 Z" id="Combined-Shape-Copy-17"></path>
                <path d="M102.56782,562.477251 L87.4323358,553.822804 L70.5366371,563.544639 L53.4860105,553.733658 L38.6566925,562.301369 L38.7338282,579.547761 L55.5951375,589.329202 L55.6298422,609.011316 L70.3238521,617.500851 L85.5175091,608.631674 L85.5518985,589.128398 L102.56782,579.257265 L102.56782,562.477251 Z M106.48694,559.911397 L141.06782,579.865515 L141.06782,621.294526 L105.06782,642.009032 L70.5496526,622.001382 L35.8534517,642.072534 L0,621.358028 L0.0732741417,579.802013 L34.7840623,559.812554 L34.762401,520.064191 L70.6158528,499.349685 L106.542579,520.191194 L106.48694,559.911397 Z M90.5366371,550.987667 L102.489862,557.822503 L102.539347,522.495632 L70.6117757,503.974079 L38.7636606,522.374482 L38.7828606,557.606436 L50.5366371,550.815634 L50.5366371,529.020463 L70.5366371,517.512404 L90.5366371,529.020463 L90.5366371,550.987667 Z M54.5366371,531.336193 L54.5366371,549.72085 L70.5366371,558.927297 L86.5366371,549.72085 L86.5366371,531.336193 L70.5366371,522.129746 L54.5366371,531.336193 Z M34.7280958,578.275042 L34.6664796,564.498574 L4.0691947,582.119124 L4.00407701,619.049364 L35.8521921,637.449768 L66.3329921,619.817151 L54.5792157,613.02635 L35.7172611,623.923936 L15.7579689,612.34532 L15.7172611,589.258644 L34.7280958,578.275042 Z M35.7213381,619.299542 L51.6317683,610.107213 L51.5992021,591.637873 L35.6317683,582.37498 L19.7213381,591.567308 L19.7539044,610.036648 L35.7213381,619.299542 Z M86.4189402,612.73953 L74.5273314,619.681163 L105.075132,637.387483 L137.06782,618.978796 L137.06782,582.17799 L106.56782,564.578652 L106.56782,578.160255 L125.429775,589.057841 L125.389067,612.144516 L105.429775,623.723132 L86.4189402,612.73953 Z M121.425698,591.366505 L105.515268,582.174176 L89.5478339,591.43707 L89.5152677,609.90641 L105.425698,619.098738 L121.393132,609.835845 L121.425698,591.366505 Z" id="Combined-Shape-Copy-29"></path>
            </g>
        </g>
    </g>
</svg>